<svg width="400" height="105" viewBox="0 0 400 105" fill="none" xmlns="http://www.w3.org/2000/svg">
<path d="M126.081 72.4563C125.051 72.4563 124.237 72.1679 123.639 71.591C123.074 70.9802 122.791 70.1148 122.791 68.995V39.6246C122.791 38.5047 123.074 37.6564 123.639 37.0795C124.237 36.4687 125.084 36.1632 126.181 36.1632H143.58C144.444 36.1632 145.092 36.3838 145.524 36.825C145.956 37.2661 146.172 37.8939 146.172 38.7083C146.172 39.5567 145.956 40.2184 145.524 40.6935C145.092 41.1347 144.444 41.3552 143.58 41.3552H129.172V51.4847H142.533C143.364 51.4847 143.995 51.7053 144.427 52.1464C144.892 52.5876 145.125 53.2154 145.125 54.0298C145.125 54.8782 144.892 55.5399 144.427 56.015C143.995 56.4561 143.364 56.6767 142.533 56.6767H129.172V68.995C129.172 71.3025 128.142 72.4563 126.081 72.4563Z" fill="#F15156"/>
<path d="M155.273 72.4054C154.276 72.4054 153.512 72.1 152.98 71.4892C152.448 70.8784 152.182 70.03 152.182 68.9441V50.2631C152.182 49.1432 152.448 48.2949 152.98 47.718C153.512 47.1072 154.276 46.8017 155.273 46.8017C156.27 46.8017 157.035 47.1072 157.567 47.718C158.132 48.2949 158.414 49.1432 158.414 50.2631V68.9441C158.414 70.03 158.148 70.8784 157.616 71.4892C157.085 72.1 156.304 72.4054 155.273 72.4054ZM155.273 42.0679C154.11 42.0679 153.196 41.7794 152.531 41.2025C151.9 40.5917 151.584 39.7603 151.584 38.7083C151.584 37.6224 151.9 36.791 152.531 36.2141C153.196 35.6373 154.11 35.3488 155.273 35.3488C156.47 35.3488 157.384 35.6373 158.015 36.2141C158.647 36.791 158.962 37.6224 158.962 38.7083C158.962 39.7603 158.647 40.5917 158.015 41.2025C157.384 41.7794 156.47 42.0679 155.273 42.0679Z" fill="#F15156"/>
<path d="M167.98 72.4563C166.983 72.4563 166.219 72.1848 165.687 71.6419C165.155 71.065 164.889 70.2506 164.889 69.1986V49.9577C164.889 48.9057 165.155 48.1082 165.687 47.5653C166.219 47.0223 166.966 46.7508 167.93 46.7508C168.894 46.7508 169.642 47.0223 170.174 47.5653C170.705 48.1082 170.971 48.9057 170.971 49.9577V53.419L170.423 52.1464C171.154 50.3479 172.284 48.9905 173.813 48.0743C175.375 47.1241 177.136 46.649 179.097 46.649C181.058 46.649 182.67 47.0223 183.933 47.7689C185.196 48.5154 186.143 49.6523 186.775 51.1793C187.406 52.6724 187.722 54.5728 187.722 56.8803V69.1986C187.722 70.2506 187.456 71.065 186.924 71.6419C186.392 72.1848 185.628 72.4563 184.631 72.4563C183.634 72.4563 182.853 72.1848 182.288 71.6419C181.756 71.065 181.49 70.2506 181.49 69.1986V57.1857C181.49 55.2515 181.125 53.8432 180.393 52.9609C179.695 52.0786 178.599 51.6374 177.103 51.6374C175.275 51.6374 173.813 52.2313 172.716 53.419C171.652 54.5728 171.121 56.1168 171.121 58.0511V69.1986C171.121 71.3704 170.074 72.4563 167.98 72.4563Z" fill="#F15156"/>
<path d="M203.423 72.5581C201.296 72.5581 199.419 72.0321 197.79 70.9802C196.195 69.9282 194.948 68.4351 194.051 66.5008C193.154 64.5326 192.705 62.225 192.705 59.5781C192.705 56.8973 193.154 54.6067 194.051 52.7064C194.948 50.7721 196.195 49.279 197.79 48.227C199.419 47.175 201.296 46.649 203.423 46.649C205.451 46.649 207.212 47.1581 208.708 48.1761C210.237 49.1941 211.267 50.5346 211.799 52.1974H211.25V38.9629C211.25 37.9109 211.516 37.1134 212.048 36.5705C212.58 36.0275 213.344 35.756 214.341 35.756C215.338 35.756 216.103 36.0275 216.635 36.5705C217.2 37.1134 217.482 37.9109 217.482 38.9629V69.1986C217.482 70.2506 217.216 71.065 216.684 71.6419C216.153 72.1848 215.388 72.4563 214.391 72.4563C213.394 72.4563 212.63 72.1848 212.098 71.6419C211.566 71.065 211.3 70.2506 211.3 69.1986V65.2282L211.849 66.7553C211.35 68.5199 210.336 69.9282 208.808 70.9802C207.279 72.0321 205.484 72.5581 203.423 72.5581ZM205.168 67.7224C206.398 67.7224 207.478 67.417 208.409 66.8062C209.339 66.1954 210.054 65.2961 210.552 64.1084C211.084 62.8868 211.35 61.3767 211.35 59.5781C211.35 56.8634 210.785 54.8442 209.655 53.5208C208.525 52.1634 207.03 51.4847 205.168 51.4847C203.939 51.4847 202.858 51.7901 201.928 52.401C200.997 52.9778 200.266 53.8771 199.734 55.0988C199.236 56.2865 198.987 57.7796 198.987 59.5781C198.987 62.259 199.552 64.295 200.682 65.6864C201.812 67.0437 203.307 67.7224 205.168 67.7224Z" fill="#F15156"/>
<path d="M224.592 72.4054C223.927 72.4054 223.395 72.2527 222.996 71.9473C222.597 71.6419 222.365 71.2347 222.298 70.7256C222.232 70.2166 222.332 69.6397 222.597 68.995L236.108 38.0466C236.44 37.2322 236.855 36.6553 237.354 36.316C237.886 35.9766 238.467 35.8069 239.099 35.8069C239.697 35.8069 240.245 35.9766 240.744 36.316C241.276 36.6553 241.708 37.2322 242.04 38.0466L255.55 68.995C255.849 69.6397 255.966 70.2336 255.899 70.7766C255.833 71.2856 255.617 71.6928 255.251 71.9982C254.886 72.2697 254.37 72.4054 253.706 72.4054C252.974 72.4054 252.393 72.2188 251.961 71.8455C251.529 71.4722 251.147 70.8953 250.814 70.1148L247.324 61.8687L249.668 63.294H228.43L230.723 61.8687L227.284 70.1148C226.951 70.9293 226.586 71.5231 226.187 71.8964C225.788 72.2357 225.256 72.4054 224.592 72.4054ZM238.999 42.017L231.471 60.2399L230.225 59.0182H247.823L246.676 60.2399L239.099 42.017H238.999Z" fill="#F15156"/>
<path d="M264.54 72.4563C263.51 72.4563 262.696 72.1679 262.097 71.591C261.532 70.9802 261.25 70.1148 261.25 68.995V39.6246C261.25 38.5047 261.532 37.6564 262.097 37.0795C262.696 36.4687 263.543 36.1632 264.64 36.1632H282.038C282.903 36.1632 283.551 36.3838 283.983 36.825C284.415 37.2661 284.631 37.8939 284.631 38.7083C284.631 39.5567 284.415 40.2184 283.983 40.6935C283.551 41.1347 282.903 41.3552 282.038 41.3552H267.631V51.4847H280.992C281.822 51.4847 282.454 51.7053 282.886 52.1464C283.351 52.5876 283.584 53.2154 283.584 54.0298C283.584 54.8782 283.351 55.5399 282.886 56.015C282.454 56.4561 281.822 56.6767 280.992 56.6767H267.631V68.995C267.631 71.3025 266.601 72.4563 264.54 72.4563Z" fill="#F15156"/>
<path d="M291.349 72.4563C290.319 72.4563 289.521 72.1848 288.956 71.6419C288.424 71.065 288.158 70.2506 288.158 69.1986V49.9577C288.158 48.9057 288.424 48.1082 288.956 47.5653C289.488 47.0223 290.236 46.7508 291.199 46.7508C292.163 46.7508 292.911 47.0223 293.443 47.5653C293.975 48.1082 294.24 48.9057 294.24 49.9577V53.1645H293.742C294.207 51.1284 295.121 49.5844 296.484 48.5324C297.846 47.4804 299.658 46.8526 301.918 46.649C302.616 46.5812 303.164 46.7678 303.563 47.209C303.995 47.6162 304.244 48.2609 304.311 49.1432C304.377 49.9916 304.178 50.6873 303.712 51.2302C303.28 51.7392 302.616 52.0446 301.718 52.1464L300.622 52.2483C298.594 52.4519 297.065 53.0966 296.035 54.1825C295.005 55.2345 294.49 56.7276 294.49 58.6619V69.1986C294.49 70.2506 294.224 71.065 293.692 71.6419C293.16 72.1848 292.379 72.4563 291.349 72.4563Z" fill="#F15156"/>
<path d="M310.772 72.4054C309.775 72.4054 309.01 72.1 308.478 71.4892C307.947 70.8784 307.681 70.03 307.681 68.9441V50.2631C307.681 49.1432 307.947 48.2949 308.478 47.718C309.01 47.1072 309.775 46.8017 310.772 46.8017C311.769 46.8017 312.533 47.1072 313.065 47.718C313.63 48.2949 313.912 49.1432 313.912 50.2631V68.9441C313.912 70.03 313.647 70.8784 313.115 71.4892C312.583 72.1 311.802 72.4054 310.772 72.4054ZM310.772 42.0679C309.608 42.0679 308.694 41.7794 308.03 41.2025C307.398 40.5917 307.083 39.7603 307.083 38.7083C307.083 37.6224 307.398 36.791 308.03 36.2141C308.694 35.6373 309.608 35.3488 310.772 35.3488C311.968 35.3488 312.882 35.6373 313.514 36.2141C314.145 36.791 314.461 37.6224 314.461 38.7083C314.461 39.7603 314.145 40.5917 313.514 41.2025C312.882 41.7794 311.968 42.0679 310.772 42.0679Z" fill="#F15156"/>
<path d="M332.402 72.5581C329.643 72.5581 327.267 72.0321 325.273 70.9802C323.279 69.9282 321.734 68.4351 320.637 66.5008C319.573 64.5665 319.041 62.2759 319.041 59.629C319.041 57.05 319.557 54.7933 320.587 52.8591C321.65 50.9248 323.096 49.4147 324.924 48.3288C326.785 47.209 328.896 46.649 331.255 46.649C332.984 46.649 334.529 46.9375 335.892 47.5144C337.288 48.0913 338.467 48.9227 339.431 50.0086C340.428 51.0945 341.176 52.4179 341.675 53.9789C342.206 55.506 342.472 57.2366 342.472 59.1709C342.472 59.7817 342.256 60.2568 341.824 60.5962C341.425 60.9016 340.844 61.0543 340.079 61.0543H324.077V57.3893H338.085L337.288 58.1529C337.288 56.5919 337.055 55.2854 336.59 54.2334C336.158 53.1815 335.51 52.384 334.645 51.841C333.815 51.2641 332.768 50.9757 331.505 50.9757C330.109 50.9757 328.912 51.3151 327.915 51.9937C326.951 52.6385 326.204 53.5717 325.672 54.7933C325.173 55.9811 324.924 57.4063 324.924 59.0691V59.4254C324.924 62.2081 325.556 64.295 326.819 65.6864C328.115 67.0437 330.009 67.7224 332.502 67.7224C333.366 67.7224 334.33 67.6206 335.393 67.417C336.49 67.1795 337.52 66.7892 338.484 66.2463C339.182 65.8391 339.797 65.6694 340.329 65.7373C340.86 65.7712 341.276 65.9578 341.575 66.2972C341.907 66.6365 342.107 67.0607 342.173 67.5697C342.24 68.0448 342.14 68.5369 341.874 69.0459C341.641 69.5549 341.226 69.9961 340.628 70.3693C339.465 71.1159 338.119 71.6758 336.59 72.0491C335.094 72.3884 333.698 72.5581 332.402 72.5581Z" fill="#F15156"/>
<path d="M350.498 72.4563C349.501 72.4563 348.737 72.1848 348.205 71.6419C347.673 71.065 347.407 70.2506 347.407 69.1986V49.9577C347.407 48.9057 347.673 48.1082 348.205 47.5653C348.737 47.0223 349.485 46.7508 350.448 46.7508C351.412 46.7508 352.16 47.0223 352.692 47.5653C353.224 48.1082 353.489 48.9057 353.489 49.9577V53.419L352.941 52.1464C353.672 50.3479 354.802 48.9905 356.331 48.0743C357.893 47.1241 359.655 46.649 361.615 46.649C363.576 46.649 365.188 47.0223 366.451 47.7689C367.714 48.5154 368.661 49.6523 369.293 51.1793C369.924 52.6724 370.24 54.5728 370.24 56.8803V69.1986C370.24 70.2506 369.974 71.065 369.442 71.6419C368.911 72.1848 368.146 72.4563 367.149 72.4563C366.152 72.4563 365.371 72.1848 364.806 71.6419C364.274 71.065 364.008 70.2506 364.008 69.1986V57.1857C364.008 55.2515 363.643 53.8432 362.912 52.9609C362.214 52.0786 361.117 51.6374 359.621 51.6374C357.793 51.6374 356.331 52.2313 355.234 53.419C354.171 54.5728 353.639 56.1168 353.639 58.0511V69.1986C353.639 71.3704 352.592 72.4563 350.498 72.4563Z" fill="#F15156"/>
<path d="M385.942 72.5581C383.815 72.5581 381.937 72.0321 380.308 70.9802C378.713 69.9282 377.467 68.4351 376.569 66.5008C375.672 64.5326 375.223 62.225 375.223 59.5781C375.223 56.8973 375.672 54.6067 376.569 52.7064C377.467 50.7721 378.713 49.279 380.308 48.227C381.937 47.175 383.815 46.649 385.942 46.649C387.969 46.649 389.731 47.1581 391.226 48.1761C392.755 49.1941 393.785 50.5346 394.317 52.1974H393.769V38.9629C393.769 37.9109 394.035 37.1134 394.566 36.5705C395.098 36.0275 395.863 35.756 396.86 35.756C397.857 35.756 398.621 36.0275 399.153 36.5705C399.718 37.1134 400 37.9109 400 38.9629V69.1986C400 70.2506 399.734 71.065 399.203 71.6419C398.671 72.1848 397.906 72.4563 396.909 72.4563C395.912 72.4563 395.148 72.1848 394.616 71.6419C394.084 71.065 393.819 70.2506 393.819 69.1986V65.2282L394.367 66.7553C393.868 68.5199 392.855 69.9282 391.326 70.9802C389.797 72.0321 388.002 72.5581 385.942 72.5581ZM387.687 67.7224C388.916 67.7224 389.996 67.417 390.927 66.8062C391.858 66.1954 392.572 65.2961 393.071 64.1084C393.603 62.8868 393.868 61.3767 393.868 59.5781C393.868 56.8634 393.303 54.8442 392.173 53.5208C391.043 52.1634 389.548 51.4847 387.687 51.4847C386.457 51.4847 385.377 51.7901 384.446 52.401C383.516 52.9778 382.784 53.8771 382.253 55.0988C381.754 56.2865 381.505 57.7796 381.505 59.5781C381.505 62.259 382.07 64.295 383.2 65.6864C384.33 67.0437 385.825 67.7224 387.687 67.7224Z" fill="#F15156"/>
<path d="M63.7416 98.1603C56.6095 106.011 44.0596 106.086 36.8329 98.3215C33.6051 94.8533 36.1121 89.2977 40.918 89.269L59.5471 89.1574C64.353 89.1286 66.9272 94.6538 63.7416 98.1603Z" fill="#F15156"/>
<path fill-rule="evenodd" clip-rule="evenodd" d="M81.2867 88.5173C77.5256 91.4396 72.2137 90.4742 69.0296 86.947L58.9132 75.7403C54.8361 71.2238 47.6793 71.2238 43.6022 75.7403L32.6535 87.869C29.5495 91.3075 24.4109 92.3275 20.6416 89.6122C8.12917 80.5984 0 66.0158 0 49.5598C0 22.1887 22.4899 0 50.2326 0C77.9752 0 100.465 22.1887 100.465 49.5598C100.465 65.3652 92.966 79.4425 81.2867 88.5173ZM44.5617 66.1967C47.5772 69.7174 52.8876 69.7174 55.9031 66.1967L65.3975 55.1117C68.4453 51.5534 66.8738 45.9218 62.4625 44.594C54.4745 42.1896 45.9903 42.1896 38.0023 44.594C33.591 45.9218 32.0195 51.5534 35.0673 55.1117L44.5617 66.1967ZM35.3487 31.6279C35.3487 35.7379 32.0169 39.0698 27.9069 39.0698C23.7968 39.0698 20.465 35.7379 20.465 31.6279C20.465 27.5179 23.7968 24.1861 27.9069 24.1861C32.0169 24.1861 35.3487 27.5179 35.3487 31.6279ZM72.558 39.0698C76.668 39.0698 79.9998 35.7379 79.9998 31.6279C79.9998 27.5179 76.668 24.1861 72.558 24.1861C68.4479 24.1861 65.1161 27.5179 65.1161 31.6279C65.1161 35.7379 68.4479 39.0698 72.558 39.0698Z" fill="#F15156"/>
</svg>
